@startuml machwave.montecarlo
!pragma useIntermediatePackages false

class machwave.montecarlo.base.MonteCarloParameter {
  _spread: float | tuple[float, float]
  _distribution: str
}
class machwave.montecarlo.base.MonteCarloSimulation {
  parameters: list[Any]
  number_of_scenarios: int
  simulation: type[Simulation]
  scenarios: list
  results: list
  _object_store: None
}
class machwave.montecarlo.random.NormalRandomGenerator {
  _sigma: float
}
abstract class machwave.montecarlo.random.RandomGenerator {
  value: float
  spread: float | tuple[float, float]
}
class machwave.montecarlo.random.UniformRandomGenerator {
}
machwave.montecarlo.random.RandomGenerator <|-- machwave.montecarlo.random.NormalRandomGenerator
machwave.montecarlo.random.RandomGenerator <|-- machwave.montecarlo.random.UniformRandomGenerator
footer Generated by //py2puml//
@enduml

